<svg width="164" height="25" viewBox="0 0 164 25" fill="none" xmlns="http://www.w3.org/2000/svg">
<path d="M24 16L32 15.7L24 4.40002V16Z" fill="#0D79BE"/>
<path d="M24 16L16 15.7L24 4.40002V16Z" fill="#3790BB"/>
<path d="M24 16L0.700012 4L7.00001 25L18 21L24 16Z" fill="#F69226"/>
<path d="M24 16L47.3 4L41 25L30 21L24 16Z" fill="#D06A29"/>
<path d="M24 16L41 25H7L24 16Z" fill="#ED7723"/>
<path d="M76.9 25L83.7 2H78L74 17.7L69.4 2H65.4L60.8 17.7L56.7 2H51L57.8 25H63.2L67.2 9.2L71.5 25H76.9Z" fill="#242121"/>
<path d="M98.2 7.19995V24.5H93.7V22.2999C92.5 23.5999 90.4 24.9 87.6 24.9C83.8 24.9 82 22.8 82 19.5V15.7999L84.5 7.19995H86.6V17.7C86.6 20.1 87.9 20.9 89.8 20.9C91.6 20.9 93 19.9 93.7 18.9V7.19995H98.2Z" fill="#242121"/>
<path d="M82.1 7.19995H82V7.69995L82.1 7.19995Z" fill="#242121"/>
<path d="M117.2 12.2V24.4H112.6V14C112.6 11.6 111.3 10.7999 109.4 10.7999C107.6 10.7999 106.2 11.7999 105.5 12.7999V24.5H101V7.19995H105.5V9.39995C106.6 8.09995 108.8 6.69995 111.6 6.69995C115.3 6.69995 117.2 8.89995 117.2 12.2Z" fill="#242121"/>
<path d="M136.1 12.2V24.4H131.5V14C131.5 11.6 130.2 10.7999 128.3 10.7999C126.5 10.7999 125.1 11.7999 124.4 12.7999V24.5H119.8V7.19995H124.4V9.39995C125.5 8.09995 127.7 6.69995 130.5 6.69995C134.3 6.69995 136.1 8.89995 136.1 12.2Z" fill="#242121"/>
<path d="M143.4 0.599976V24.5H138.9V0.599976H143.4Z" fill="#242121"/>
<path d="M157.3 24.2C159.9 23.5 162.3 22 163.6 20L160.8 17.6C160 18.9 158.2 20 156.8 20.4C154 21.2 151.8 19.9 151 18L163.4 14.7L163.1 13.7C161.6 8.3 157.3 5.4 152.3 6.8C147.2 8.2 144.7 13 146 17.9C147.4 23.2 152.2 25.6 157.3 24.2ZM158.3 12.8L150.1 15C149.8 13.3 150.5 11.1 153.2 10.3C156.1 9.5 157.8 11.2 158.3 12.8Z" fill="#242121"/>
<path d="M24 16L32 15.7L24 4.40002V16Z" fill="#0D79BE"/>
<path d="M24 16L16 15.7L24 4.40002V16Z" fill="#3790BB"/>
<path d="M41 25L47.3 4L24 16L41 25Z" fill="#D06A29"/>
<path d="M24 16L0.700012 4L7.00001 25L24 16Z" fill="#F69226"/>
<path d="M24 16L41 25H7L24 16Z" fill="#ED7723"/>
</svg>
