<?xml version="1.0" encoding="utf-8"?>
<!-- Generator: Adobe Illustrator 22.1.0, SVG Export Plug-In . SVG Version: 6.00 Build 0)  -->
<svg version="1.1" xmlns="http://www.w3.org/2000/svg" xmlns:xlink="http://www.w3.org/1999/xlink" x="0px" y="0px"
	 viewBox="0 0 184.7 55" style="enable-background:new 0 0 184.7 55;" xml:space="preserve">
<style type="text/css">
	.st0{fill:#0D79BE;}
	.st1{fill:#3790BB;}
	.st2{fill:#F69226;}
	.st3{fill:#D06A29;}
	.st4{fill:#ED7723;}
	.st5{fill:#242121;}
</style>
<g id="Layer_1">
	<g>
		<path class="st0" d="M34,31l8-0.3l-8-11.3V31z"/>
		<path class="st1" d="M34,31l-8-0.3l8-11.3V31z"/>
		<path class="st2" d="M34,31L10.7,19L17,40l11-4L34,31z"/>
		<path class="st3" d="M34,31l23.3-12L51,40l-11-4L34,31z"/>
		<polygon class="st4" points="34,31 51,40 17,40 		"/>
	</g>
	<g>
		<path class="st5" d="M86.9,40l6.8-23H88l-4,15.7L79.4,17h-4l-4.6,15.7L66.7,17H61l6.8,23h5.4l4-15.8L81.5,40H86.9z"/>
		<path class="st5" d="M108.2,22.2v17.3h-4.5v-2.2c-1.2,1.3-3.3,2.6-6.1,2.6c-3.8,0-5.6-2.1-5.6-5.4v-3.7l2.5-8.6h2.1v10.5
			c0,2.4,1.3,3.2,3.2,3.2c1.8,0,3.2-1,3.9-2V22.2H108.2z"/>
		<path class="st5" d="M92.1,22.2h-0.1v0.5L92.1,22.2z"/>
		<path class="st5" d="M127.2,27.2v12.2h-4.6V29c0-2.4-1.3-3.2-3.2-3.2c-1.8,0-3.2,1-3.9,2v11.7h-4.5V22.2h4.5v2.2
			c1.1-1.3,3.3-2.7,6.1-2.7C125.3,21.7,127.2,23.9,127.2,27.2z"/>
		<path class="st5" d="M146.1,27.2v12.2h-4.6V29c0-2.4-1.3-3.2-3.2-3.2c-1.8,0-3.2,1-3.9,2v11.7h-4.6V22.2h4.6v2.2
			c1.1-1.3,3.3-2.7,6.1-2.7C144.3,21.7,146.1,23.9,146.1,27.2z"/>
		<path class="st5" d="M153.4,15.6v23.9h-4.5V15.6H153.4z"/>
		<path class="st5" d="M167.3,39.2c2.6-0.7,5-2.2,6.3-4.2l-2.8-2.4c-0.8,1.3-2.6,2.4-4,2.8c-2.8,0.8-5-0.5-5.8-2.4l12.4-3.3l-0.3-1
			c-1.5-5.4-5.8-8.3-10.8-6.9c-5.1,1.4-7.6,6.2-6.3,11.1C157.4,38.2,162.2,40.6,167.3,39.2z M168.3,27.8l-8.2,2.2
			c-0.3-1.7,0.4-3.9,3.1-4.7C166.1,24.5,167.8,26.2,168.3,27.8z"/>
	</g>
</g>
<g id="Layer_2">
	<g>
		<path class="st0" d="M34,31l8-0.3l-8-11.3V31z"/>
		<path class="st1" d="M34,31l-8-0.3l8-11.3V31z"/>
		<path class="st3" d="M51,40l6.3-21L34,31L51,40z"/>
		<path class="st2" d="M34,31L10.7,19L17,40L34,31z"/>
		<polygon class="st4" points="34,31 51,40 17,40 		"/>
	</g>
</g>
</svg>
