<svg width="22" height="17" viewBox="0 0 22 17" fill="none" xmlns="http://www.w3.org/2000/svg">
<path d="M19.2458 9.31717C19.2376 9.10724 19.1512 8.86456 19.0072 8.7115L13.7213 3.13201C13.4127 2.76632 12.819 2.77365 12.472 3.10323C12.125 3.43274 12.0965 4.0163 12.4458 4.3434L16.3184 8.43625L4.26931 8.43625C3.78278 8.43625 3.38834 8.83069 3.38834 9.31722C3.38834 9.80379 3.78278 10.1982 4.26931 10.1982L16.3184 10.1982L12.4458 14.291C12.0966 14.6182 12.1252 15.2042 12.4723 15.5337C12.8192 15.8632 13.4214 15.8647 13.7215 15.5024L19.0074 9.92289C19.1682 9.75204 19.2436 9.55277 19.246 9.31723L19.2458 9.31717Z" fill="#0079FF"/>
</svg>
