<?xml version="1.0" encoding="utf-8"?>
<!-- Generator: Adobe Illustrator 22.1.0, SVG Export Plug-In . SVG Version: 6.00 Build 0)  -->
<svg version="1.1" id="Layer_1" xmlns="http://www.w3.org/2000/svg" xmlns:xlink="http://www.w3.org/1999/xlink" x="0px" y="0px"
	 viewBox="0 0 46.6 21" style="enable-background:new 0 0 46.6 21;" xml:space="preserve">
<style type="text/css">
	.st0{fill:#0D79BE;}
	.st1{fill:#3790BB;}
	.st2{fill:#F69226;}
	.st3{fill:#D06A29;}
	.st4{fill:#ED7723;}
</style>
<g>
	<path class="st0" d="M23.3,12l8-0.3l-8-11.3V12z"/>
	<path class="st1" d="M23.3,12l-8-0.3l8-11.3V12z"/>
	<path class="st2" d="M23.3,12L0,0l6.3,21l11-4L23.3,12z"/>
	<path class="st3" d="M23.3,12L46.6,0l-6.3,21l-11-4L23.3,12z"/>
	<polygon class="st4" points="23.3,12 40.3,21 6.3,21 	"/>
</g>
<g>
	<path class="st0" d="M23.3,12l8-0.3l-8-11.3V12z"/>
	<path class="st1" d="M23.3,12l-8-0.3l8-11.3V12z"/>
	<path class="st3" d="M40.3,21l6.3-21L23.3,12L40.3,21z"/>
	<path class="st2" d="M23.3,12L0,0l6.3,21L23.3,12z"/>
	<polygon class="st4" points="23.3,12 40.3,21 6.3,21 	"/>
</g>
</svg>
