<svg width="40" height="40" viewBox="0 0 40 40" fill="none" xmlns="http://www.w3.org/2000/svg">
<rect width="40" height="40" fill="white"/>
<g clip-path="url(#clip0)">
<path d="M32.003 8.77478L29.816 33.2747L19.9853 36.0001L10.1818 33.2786L7.99707 8.77478H32.003Z" fill="#264DE4"/>
<path d="M27.9438 31.7146L29.8127 10.7783H20.0001V33.9169L27.9438 31.7146Z" fill="#2965F1"/>
<path d="M13.0056 19.8663L13.275 22.8716H20.0002V19.8663H13.0056Z" fill="#EBEBEB"/>
<path d="M20.0002 13.7836H19.9898H12.4644L12.7375 16.7889H20.0002V13.7836Z" fill="#EBEBEB"/>
<path d="M20 30.7983V27.6715L19.9869 27.675L16.6399 26.7712L16.4259 24.3744H14.7995H13.4091L13.8301 29.0931L19.9862 30.8021L20 30.7983Z" fill="#EBEBEB"/>
<path d="M13.6467 2.1156H17.2867V3.63775H15.1689V5.1599H17.2867V6.68205H13.6467V2.1156Z" fill="black"/>
<path d="M18.0146 2.1156H21.6546V3.43921H19.5368V3.70393H21.6546V6.74823H18.0146V5.35844H20.1324V5.09372H18.0146V2.1156Z" fill="black"/>
<path d="M22.3826 2.1156H26.0225V3.43921H23.9047V3.70393H26.0225V6.74823H22.3826V5.35844H24.5003V5.09372H22.3826V2.1156Z" fill="black"/>
<path d="M23.6903 22.8716L23.3415 26.7692L19.9896 27.6739V30.8006L26.1506 29.093L26.1958 28.5853L26.902 20.6734L26.9754 19.8663L27.5179 13.7836H19.9896V16.7889H24.2244L23.9509 19.8663H19.9896V22.8716H23.6903Z" fill="white"/>
</g>
<defs>
<clipPath id="clip0">
<rect width="24.0059" height="33.8844" fill="white" transform="translate(7.99707 2.1156)"/>
</clipPath>
</defs>
</svg>
