<svg width="25" height="32" viewBox="0 0 25 32" fill="none" xmlns="http://www.w3.org/2000/svg">
<path fill-rule="evenodd" clip-rule="evenodd" d="M0.396484 6.41602L2.56611 29.188L12.3031 31.8031L22.0796 29.1753L24.2493 6.41602H0.396484ZM19.9902 10.2366H4.65632L4.9346 13.2497L16.6354 13.2497L16.3568 16.335L5.20774 16.335L5.48211 19.3479L16.0914 19.348L15.736 23.2556L12.3218 24.1628L12.319 24.1635L8.90968 23.2575L8.69174 20.8544H5.61874L6.04761 25.5853L12.3183 27.2986L12.3324 27.2943L18.5975 25.5853L19.3629 17.1441L19.4376 16.335L19.9902 10.2366Z" fill="white"/>
<path fill-rule="evenodd" clip-rule="evenodd" d="M6.35938 0H9.97608V1.51021H7.87182V3.02041H9.97608V4.53062H6.35938V0ZM10.7001 0H14.3168V1.31322H12.2125V1.57587H14.3168V4.59628H10.7001V3.2174H12.8043V2.95475H10.7001V0ZM18.6562 0H15.0395V2.95475H17.1438V3.2174H15.0395V4.59628H18.6562V1.57587H16.5519V1.31322H18.6562V0Z" fill="white"/>
</svg>
