<svg width="18" height="28" viewBox="0 0 18 28" fill="none" xmlns="http://www.w3.org/2000/svg">
<path d="M9 14C9 12.8065 9.4741 11.6619 10.318 10.818C11.1619 9.9741 12.3065 9.5 13.5 9.5C14.6935 9.5 15.838 9.9741 16.682 10.818C17.5259 11.6619 18 12.8065 18 14C18 15.1935 17.5259 16.338 16.682 17.182C15.838 18.0259 14.6935 18.5 13.5 18.5C12.3065 18.5 11.1619 18.0259 10.318 17.182C9.4741 16.338 9 15.1935 9 14V14Z" fill="white"/>
<path d="M0 23C0 21.8065 0.474104 20.6619 1.31801 19.818C2.16193 18.9741 3.30651 18.5 4.49998 18.5H8.99997V23C8.99997 24.1935 8.52587 25.338 7.68195 26.182C6.83804 27.0259 5.69346 27.5 4.49998 27.5C3.30651 27.5 2.16193 27.0259 1.31801 26.182C0.474104 25.338 0 24.1935 0 23H0Z" fill="white"/>
<path d="M9 0.5V9.49997H13.5C14.6935 9.49997 15.838 9.02587 16.682 8.18195C17.5259 7.33804 18 6.19346 18 4.99998C18 3.80651 17.5259 2.66193 16.682 1.81801C15.838 0.974104 14.6935 0.5 13.5 0.5L9 0.5Z" fill="white" fill-opacity="0.85"/>
<path d="M0 4.99998C0 6.19346 0.474104 7.33804 1.31801 8.18195C2.16193 9.02587 3.30651 9.49997 4.49998 9.49997H8.99997V0.5H4.49998C3.30651 0.5 2.16193 0.974104 1.31801 1.81801C0.474104 2.66193 0 3.80651 0 4.99998H0Z" fill="white"/>
<path d="M0 14C0 15.1935 0.474104 16.338 1.31801 17.182C2.16193 18.0259 3.30651 18.5 4.49998 18.5H8.99997V9.5H4.49998C3.30651 9.5 2.16193 9.9741 1.31801 10.818C0.474104 11.6619 0 12.8065 0 14H0Z" fill="white" fill-opacity="0.85"/>
</svg>
