<svg width="40" height="40" viewBox="0 0 40 40" fill="none" xmlns="http://www.w3.org/2000/svg">
<rect width="40" height="40" fill="white"/>
<path d="M20 21.1816C20 19.9413 20.4927 18.7518 21.3697 17.8748C22.2467 16.9978 23.4362 16.5051 24.6765 16.5051C25.9167 16.5051 27.1062 16.9978 27.9832 17.8748C28.8602 18.7518 29.3529 19.9413 29.3529 21.1816C29.3529 22.4219 28.8602 23.6113 27.9832 24.4884C27.1062 25.3654 25.9167 25.8581 24.6765 25.8581C23.4362 25.8581 22.2467 25.3654 21.3697 24.4884C20.4927 23.6113 20 22.4219 20 21.1816V21.1816Z" fill="#1ABCFE"/>
<path d="M10.6471 30.5346C10.6471 29.2943 11.1398 28.1049 12.0168 27.2279C12.8938 26.3509 14.0833 25.8582 15.3236 25.8582H20V30.5346C20 31.7749 19.5073 32.9644 18.6303 33.8414C17.7533 34.7184 16.5638 35.2111 15.3236 35.2111C14.0833 35.2111 12.8938 34.7184 12.0168 33.8414C11.1398 32.9644 10.6471 31.7749 10.6471 30.5346V30.5346Z" fill="#0ACF83"/>
<path d="M20 7.15222V16.5052H24.6765C25.9167 16.5052 27.1062 16.0125 27.9832 15.1355C28.8602 14.2584 29.3529 13.069 29.3529 11.8287C29.3529 10.5884 28.8602 9.39894 27.9832 8.52193C27.1062 7.64492 25.9167 7.15222 24.6765 7.15222H20Z" fill="#FF7262"/>
<path d="M10.6471 11.8287C10.6471 13.069 11.1398 14.2584 12.0168 15.1355C12.8938 16.0125 14.0833 16.5052 15.3236 16.5052H20V7.15222H15.3236C14.0833 7.15222 12.8938 7.64492 12.0168 8.52193C11.1398 9.39894 10.6471 10.5884 10.6471 11.8287V11.8287Z" fill="#F24E1E"/>
<path d="M10.6471 21.1816C10.6471 22.4219 11.1398 23.6113 12.0168 24.4884C12.8938 25.3654 14.0833 25.8581 15.3236 25.8581H20V16.5051H15.3236C14.0833 16.5051 12.8938 16.9978 12.0168 17.8748C11.1398 18.7518 10.6471 19.9413 10.6471 21.1816V21.1816Z" fill="#A259FF"/>
</svg>
