<svg width="41" height="40" viewBox="0 0 41 40" fill="none" xmlns="http://www.w3.org/2000/svg">
<rect width="40" height="40" transform="translate(0.488647)" fill="white"/>
<path d="M10.4053 2H11.9765V3.50891H13.4248V2H14.9961V6.56645H13.4248V5.0443H11.9902V6.56645H10.4053V2ZM17.0728 3.52215H15.686V2H20.0377V3.52215H18.6441V6.56645H17.0728V3.52215ZM20.7277 2H22.3741L23.3852 3.60819L24.3963 2H26.0426V6.56645H24.4714V4.30308L23.3715 5.94436L22.2716 4.30308V6.56645H20.7277V2ZM26.8214 2H28.3927V5.05754H30.6198V6.56645H26.8214" fill="black"/>
<path d="M10.3506 33.1711L8.09619 8.65784H32.881L30.6266 33.1578L20.4681 35.8845" fill="#E44D26"/>
<path d="M20.4886 33.7998V10.6697H30.6198L28.6865 31.5827" fill="#F16529"/>
<path d="M12.7007 13.6675H20.4886V16.6721H16.1028L16.3897 19.7495H20.4886V22.7474H13.5478L12.7007 13.6675ZM13.6844 24.2564H16.7996L17.0182 26.6587L20.4886 27.5588V30.6957L14.1216 28.975" fill="#EBEBEB"/>
<path d="M28.2491 13.6675H20.4749V16.6721H27.9622L28.2491 13.6675ZM27.6821 19.7495H20.4749V22.7541H24.3005L23.9384 26.6587L20.4749 27.5588V30.6825L26.8282 28.975" fill="white"/>
</svg>
