<svg width="24" height="32" viewBox="0 0 24 32" fill="none" xmlns="http://www.w3.org/2000/svg">
<path fill-rule="evenodd" clip-rule="evenodd" d="M0.0810547 6.60742L2.25068 29.3794L11.9877 31.9945L21.7642 29.3667L23.9338 6.60742H0.0810547ZM12.0078 10.7658H4.34089L5.17632 19.7332H12.0078V19.7398H15.7807L15.4236 23.596L12.0146 24.4832L8.59885 23.5961L8.38326 21.2235H5.31106L5.74225 25.8837L12.0214 27.583V27.5663L18.2735 25.8837L19.1156 16.7724H12.0078L7.97902 16.7724L7.69605 13.7332H12.0214L19.3919 13.7332L19.6748 10.7658H12.0214H12.0078Z" fill="white"/>
<path d="M2.30371 0.191406H3.81588V1.64565H5.2097V0.191406H6.72186V4.59241H5.2097V3.12541H3.82903V4.59241H2.30371V0.191406ZM8.72055 1.65841H7.3859V0.191406H11.5739V1.65841H10.2327V4.59241H8.72055V1.65841ZM12.238 0.191406H13.8225L14.7955 1.74133L15.7686 0.191406H17.353V4.59241H15.8409V2.41104L14.7824 3.99286L13.7238 2.41104V4.59241H12.238V0.191406ZM18.1026 0.191406H19.6147V3.13817H21.758V4.59241H18.1026" fill="white"/>
</svg>
