<svg width="29" height="30" viewBox="0 0 29 30" fill="none" xmlns="http://www.w3.org/2000/svg">
<path d="M6.81543 7.88874C6.81543 7.8101 6.98014 7.75392 7.07425 7.75392C7.82719 7.72022 8.94484 7.69775 10.1095 7.69775C13.3684 7.69775 14.639 9.40535 14.639 11.596C14.639 14.4495 12.4743 15.674 9.81543 15.674C9.36837 15.674 9.21543 15.6516 8.89778 15.6516V19.9655C8.89778 20.0554 8.86249 20.1003 8.75661 20.1003H6.95661C6.86249 20.1003 6.81543 20.0666 6.81543 19.9655V7.88874ZM8.90955 13.8541C9.18014 13.8766 9.3919 13.8766 9.86249 13.8766C11.239 13.8766 12.5331 13.416 12.5331 11.6297C12.5331 10.203 11.6037 9.48399 10.039 9.48399C9.56837 9.48399 9.12131 9.50646 8.90955 9.5177V13.8541ZM19.0272 12.5172C18.0978 12.5172 17.7801 12.9666 17.7801 13.3373C17.7801 13.7418 17.9919 14.0226 19.239 14.6405C21.086 15.4943 21.6625 16.3144 21.6625 17.5164C21.6625 19.3139 20.2272 20.2801 18.286 20.2801C17.2625 20.2801 16.3801 20.0778 15.8743 19.797C15.7919 19.7633 15.7801 19.7071 15.7801 19.6172V17.9658C15.7801 17.8535 15.839 17.8198 15.9213 17.8759C16.6625 18.3365 17.5095 18.5388 18.286 18.5388C19.2154 18.5388 19.6037 18.168 19.6037 17.6625C19.6037 17.2581 19.3331 16.8986 18.1448 16.3144C16.4743 15.5505 15.7801 14.7753 15.7801 13.4834C15.7801 12.0342 16.9684 10.8321 19.0272 10.8321C20.039 10.8321 20.7448 10.9781 21.1331 11.1467C21.2272 11.2028 21.2507 11.2927 21.2507 11.3713V12.9104C21.2507 13.0003 21.1919 13.0565 21.0743 13.0228C20.5566 12.7082 19.7919 12.5172 19.0272 12.5172Z" fill="white"/>
<rect x="1" y="1.88232" width="26.2353" height="26.2353" rx="2" stroke="white" stroke-width="2"/>
</svg>
