<svg width="29" height="30" viewBox="0 0 29 30" fill="none" xmlns="http://www.w3.org/2000/svg">
<path d="M7.58014 7.88874C7.58014 7.8101 7.74485 7.75392 7.83896 7.75392C8.5919 7.72022 9.70955 7.69775 10.8743 7.69775C14.1331 7.69775 15.4037 9.40535 15.4037 11.596C15.4037 14.4495 13.239 15.674 10.5801 15.674C10.1331 15.674 9.98014 15.6516 9.66249 15.6516V19.9655C9.66249 20.0554 9.6272 20.1003 9.52132 20.1003H7.72132C7.6272 20.1003 7.58014 20.0666 7.58014 19.9655V7.88874ZM9.67426 13.8541C9.94484 13.8766 10.1566 13.8766 10.6272 13.8766C12.0037 13.8766 13.2978 13.416 13.2978 11.6297C13.2978 10.203 12.3684 9.48399 10.8037 9.48399C10.3331 9.48399 9.88602 9.50646 9.67426 9.5177V13.8541ZM19.7919 12.5172C18.8625 12.5172 18.5448 12.9666 18.5448 13.3373C18.5448 13.7418 18.7566 14.0226 20.0037 14.6405C21.8507 15.4943 22.4272 16.3144 22.4272 17.5164C22.4272 19.3139 20.9919 20.2801 19.0507 20.2801C18.0272 20.2801 17.1448 20.0778 16.639 19.797C16.5566 19.7633 16.5448 19.7071 16.5448 19.6172V17.9658C16.5448 17.8535 16.6037 17.8198 16.686 17.8759C17.4272 18.3365 18.2743 18.5388 19.0507 18.5388C19.9801 18.5388 20.3684 18.168 20.3684 17.6625C20.3684 17.2581 20.0978 16.8986 18.9095 16.3144C17.239 15.5505 16.5448 14.7753 16.5448 13.4834C16.5448 12.0342 17.7331 10.8321 19.7919 10.8321C20.8037 10.8321 21.5095 10.9781 21.8978 11.1467C21.9919 11.2028 22.0154 11.2927 22.0154 11.3713V12.9104C22.0154 13.0003 21.9566 13.0565 21.839 13.0228C21.3213 12.7082 20.5566 12.5172 19.7919 12.5172Z" fill="#00C8FF"/>
<rect x="1.76471" y="1.88232" width="26.2353" height="26.2353" rx="2" stroke="#00C8FF" stroke-width="2"/>
</svg>
