<svg width="36" height="32" viewBox="0 0 36 32" fill="none" xmlns="http://www.w3.org/2000/svg">
<path d="M35.0129 15.6004C35.0129 13.2848 32.1083 11.0903 27.6549 9.72938C28.6826 5.19787 28.2259 1.59261 26.2133 0.438352C25.7494 0.167602 25.207 0.0393515 24.6147 0.0393515V1.62823C24.943 1.62823 25.207 1.69236 25.4283 1.81348C26.3989 2.36923 26.8199 4.48536 26.4916 7.20712C26.4131 7.87687 26.2847 8.58225 26.1277 9.30188C24.7289 8.95988 23.2016 8.69625 21.5958 8.52525C20.6324 7.20712 19.6332 6.01012 18.6269 4.96274C20.9535 2.80386 23.1374 1.62111 24.6218 1.62111V0.0322266C22.6592 0.0322266 20.09 1.42873 17.4922 3.85124C14.8944 1.44298 12.3252 0.0607268 10.3626 0.0607268V1.64961C11.8399 1.64961 14.0309 2.82523 16.3574 4.96987C15.3583 6.01724 14.3592 7.20712 13.41 8.52525C11.7971 8.69625 10.2698 8.95988 8.87099 9.309C8.70684 8.5965 8.58552 7.90537 8.49988 7.24275C8.16445 4.52099 8.57838 2.40486 9.54184 1.84198C9.75595 1.71373 10.0343 1.65673 10.3626 1.65673V0.0678517C9.76308 0.0678517 9.22069 0.196102 8.74966 0.466853C6.74423 1.62111 6.29462 5.21924 7.32945 9.7365C2.89039 11.1045 0 13.2919 0 15.6004C0 17.916 2.90466 20.1105 7.358 21.4714C6.3303 26.0029 6.78706 29.6082 8.79962 30.7624C9.26351 31.0332 9.8059 31.1614 10.4054 31.1614C12.368 31.1614 14.9372 29.7649 17.535 27.3424C20.1328 29.7507 22.702 31.1329 24.6646 31.1329C25.2641 31.1329 25.8065 31.0047 26.2775 30.7339C28.283 29.5797 28.7326 25.9815 27.6977 21.4643C32.1225 20.1034 35.0129 17.9089 35.0129 15.6004ZM25.7209 10.848C25.4568 11.7671 25.1285 12.7148 24.7574 13.6624C24.4648 13.0924 24.1579 12.5224 23.8225 11.9524C23.4942 11.3824 23.1445 10.8266 22.7948 10.2851C23.8082 10.4348 24.786 10.62 25.7209 10.848ZM22.4522 18.4362C21.8956 19.398 21.3246 20.31 20.7323 21.1579C19.6689 21.2505 18.5912 21.3004 17.5065 21.3004C16.4288 21.3004 15.3512 21.2505 14.2949 21.165C13.7026 20.3172 13.1245 19.4123 12.5678 18.4575C12.0254 17.5242 11.533 16.5765 11.0834 15.6218C11.5259 14.667 12.0254 13.7123 12.5607 12.7789C13.1174 11.817 13.6883 10.905 14.2806 10.0571C15.344 9.9645 16.4217 9.91463 17.5065 9.91463C18.5841 9.91463 19.6618 9.96451 20.718 10.05C21.3104 10.8979 21.8884 11.8028 22.4451 12.7575C22.9875 13.6909 23.4799 14.6385 23.9295 15.5933C23.4799 16.548 22.9875 17.5028 22.4522 18.4362ZM24.7574 17.5099C25.1428 18.4647 25.4711 19.4194 25.7423 20.3457C24.8074 20.5737 23.8225 20.766 22.8019 20.9157C23.1516 20.367 23.5013 19.8042 23.8296 19.227C24.1579 18.657 24.4648 18.0799 24.7574 17.5099ZM17.5207 25.1123C16.857 24.4283 16.1933 23.6659 15.5367 22.8323C16.179 22.8608 16.8356 22.8822 17.4993 22.8822C18.1702 22.8822 18.8339 22.8679 19.4833 22.8323C18.841 23.6659 18.1773 24.4283 17.5207 25.1123ZM12.211 20.9157C11.1976 20.766 10.2198 20.5808 9.28492 20.3528C9.54898 19.4337 9.87727 18.486 10.2484 17.5384C10.541 18.1084 10.8479 18.6784 11.1833 19.2484C11.5187 19.8184 11.8613 20.3742 12.211 20.9157ZM17.4851 6.08849C18.1488 6.7725 18.8125 7.53487 19.4691 8.3685C18.8268 8.34 18.1702 8.31863 17.5065 8.31863C16.8356 8.31863 16.1719 8.33288 15.5224 8.3685C16.1648 7.53487 16.8285 6.7725 17.4851 6.08849ZM12.2039 10.2851C11.8542 10.8338 11.5044 11.3966 11.1762 11.9738C10.8479 12.5438 10.541 13.1138 10.2484 13.6838C9.863 12.729 9.53471 11.7743 9.26351 10.848C10.1984 10.6271 11.1833 10.4348 12.2039 10.2851ZM5.74509 19.2057C3.21868 18.1298 1.58436 16.719 1.58436 15.6004C1.58436 14.4818 3.21868 13.0639 5.74509 11.9951C6.35885 11.7315 7.0297 11.4964 7.72197 11.2755C8.12877 12.672 8.66402 14.1255 9.32774 15.6146C8.67116 17.0967 8.14304 18.543 7.74338 19.9324C7.03684 19.7115 6.36599 19.4693 5.74509 19.2057ZM9.58466 29.3873C8.61407 28.8316 8.193 26.7154 8.52129 23.9937C8.59979 23.3239 8.72825 22.6185 8.88526 21.8989C10.2841 22.2409 11.8113 22.5045 13.4171 22.6755C14.3806 23.9937 15.3797 25.1907 16.386 26.238C14.0594 28.3969 11.8756 29.5797 10.3911 29.5797C10.07 29.5726 9.79877 29.5084 9.58466 29.3873ZM26.5131 23.958C26.8485 26.6798 26.4345 28.7959 25.4711 29.3588C25.257 29.4871 24.9786 29.5441 24.6504 29.5441C23.173 29.5441 20.9821 28.3684 18.6555 26.2238C19.6546 25.1764 20.6538 23.9865 21.603 22.6684C23.2159 22.4974 24.7431 22.2338 26.1419 21.8847C26.3061 22.6043 26.4345 23.2954 26.5131 23.958ZM29.2607 19.2057C28.6469 19.4693 27.9761 19.7044 27.2838 19.9253C26.877 18.5288 26.3418 17.0753 25.678 15.5861C26.3346 14.1041 26.8628 12.6578 27.2624 11.2684C27.9689 11.4893 28.6398 11.7315 29.2678 11.9951C31.7942 13.071 33.4286 14.4818 33.4286 15.6004C33.4214 16.719 31.7871 18.1369 29.2607 19.2057Z" fill="white"/>
<path d="M17.4988 18.858C19.3001 18.858 20.7603 17.4002 20.7603 15.6018C20.7603 13.8035 19.3001 12.3457 17.4988 12.3457C15.6975 12.3457 14.2373 13.8035 14.2373 15.6018C14.2373 17.4002 15.6975 18.858 17.4988 18.858Z" fill="white"/>
</svg>
