<svg width="41" height="40" viewBox="0 0 41 40" fill="none" xmlns="http://www.w3.org/2000/svg">
<rect width="40" height="40" transform="translate(0.437988)" fill="white"/>
<path d="M37.4001 20.0034C37.4001 17.7598 34.5857 15.6335 30.2709 14.3149C31.2666 9.92434 30.8241 6.43117 28.8741 5.31281C28.4246 5.05048 27.8991 4.92621 27.3251 4.92621V6.46569C27.6432 6.46569 27.8991 6.52782 28.1134 6.64518C29.0539 7.18365 29.4618 9.23399 29.1438 11.8711C29.0677 12.52 28.9432 13.2035 28.7911 13.9007C27.4358 13.5694 25.956 13.3139 24.4002 13.1483C23.4667 11.8711 22.4986 10.7113 21.5236 9.69652C23.7778 7.60477 25.8938 6.45879 27.3321 6.45879V4.91931C25.4305 4.91931 22.9411 6.27239 20.4241 8.61958C17.9071 6.2862 15.4178 4.94693 13.5162 4.94693V6.4864C14.9476 6.4864 17.0704 7.62548 19.3247 9.70342C18.3566 10.7182 17.3885 11.8711 16.4688 13.1483C14.9061 13.3139 13.4263 13.5694 12.071 13.9076C11.9119 13.2173 11.7944 12.5477 11.7114 11.9056C11.3864 9.2685 11.7875 7.21817 12.721 6.6728C12.9284 6.54853 13.1981 6.49331 13.5162 6.49331V4.95383C12.9353 4.95383 12.4098 5.07809 11.9534 5.34042C10.0104 6.45879 9.57473 9.94504 10.5774 14.3219C6.27634 15.6473 3.47583 17.7667 3.47583 20.0034C3.47583 22.247 6.29017 24.3733 10.605 25.6919C9.6093 30.0825 10.0519 33.5757 12.0018 34.694C12.4513 34.9564 12.9768 35.0806 13.5577 35.0806C15.4593 35.0806 17.9486 33.7275 20.4656 31.3803C22.9826 33.7137 25.472 35.053 27.3736 35.053C27.9544 35.053 28.4799 34.9287 28.9363 34.6664C30.8794 33.548 31.315 30.0618 30.3124 25.685C34.5996 24.3664 37.4001 22.2401 37.4001 20.0034ZM28.397 15.3988C28.1411 16.2893 27.823 17.2075 27.4634 18.1257C27.1799 17.5734 26.8826 17.0211 26.5576 16.4688C26.2395 15.9166 25.9007 15.3781 25.5619 14.8534C26.5438 14.9984 27.4911 15.1779 28.397 15.3988ZM25.2299 22.751C24.6906 23.683 24.1374 24.5666 23.5635 25.3881C22.5332 25.4779 21.489 25.5262 20.438 25.5262C19.3938 25.5262 18.3497 25.4779 17.3263 25.395C16.7523 24.5735 16.1922 23.6968 15.6529 22.7717C15.1274 21.8674 14.6502 20.9492 14.2146 20.0241C14.6433 19.0991 15.1274 18.174 15.646 17.2696C16.1853 16.3377 16.7385 15.454 17.3124 14.6325C18.3428 14.5428 19.3869 14.4944 20.438 14.4944C21.4821 14.4944 22.5262 14.5428 23.5496 14.6256C24.1236 15.4471 24.6837 16.3239 25.223 17.2489C25.7486 18.1533 26.2257 19.0714 26.6613 19.9965C26.2257 20.9216 25.7486 21.8466 25.2299 22.751ZM27.4634 21.8535C27.8368 22.7786 28.1549 23.7037 28.4177 24.6011C27.5119 24.822 26.5576 25.0084 25.5688 25.1534C25.9076 24.6218 26.2464 24.0765 26.5645 23.5173C26.8826 22.965 27.1799 22.4058 27.4634 21.8535ZM20.4518 29.2196C19.8087 28.5568 19.1656 27.8182 18.5295 27.0104C19.1518 27.0381 19.788 27.0588 20.431 27.0588C21.081 27.0588 21.7241 27.045 22.3534 27.0104C21.731 27.8182 21.088 28.5568 20.4518 29.2196ZM15.3071 25.1534C14.3252 25.0084 13.3779 24.8289 12.4721 24.608C12.7279 23.7175 13.046 22.7993 13.4056 21.8812C13.6891 22.4334 13.9864 22.9857 14.3114 23.538C14.6364 24.0903 14.9683 24.6287 15.3071 25.1534ZM20.4172 10.7873C21.0603 11.45 21.7034 12.1887 22.3395 12.9964C21.7172 12.9688 21.081 12.9481 20.438 12.9481C19.788 12.9481 19.1449 12.9619 18.5156 12.9964C19.138 12.1887 19.781 11.45 20.4172 10.7873ZM15.3002 14.8534C14.9614 15.385 14.6226 15.9304 14.3045 16.4895C13.9864 17.0418 13.6891 17.5941 13.4056 18.1464C13.0322 17.2213 12.7141 16.2962 12.4513 15.3988C13.3572 15.1848 14.3114 14.9984 15.3002 14.8534ZM9.04229 23.4966C6.59443 22.4542 5.01093 21.0873 5.01093 20.0034C5.01093 18.9196 6.59443 17.5458 9.04229 16.5103C9.63696 16.2548 10.287 16.027 10.9577 15.813C11.3518 17.1661 11.8705 18.5744 12.5135 20.0172C11.8774 21.4531 11.3657 22.8546 10.9784 24.2007C10.2939 23.9867 9.64388 23.752 9.04229 23.4966ZM12.7625 33.3616C11.8221 32.8232 11.4141 30.7728 11.7322 28.1357C11.8082 27.4868 11.9327 26.8033 12.0848 26.1061C13.4401 26.4375 14.9199 26.6929 16.4758 26.8586C17.4093 28.1357 18.3773 29.2955 19.3523 30.3103C17.0981 32.4021 14.9821 33.548 13.5439 33.548C13.2327 33.5411 12.9699 33.479 12.7625 33.3616ZM29.1645 28.1012C29.4895 30.7383 29.0884 32.7887 28.1549 33.334C27.9475 33.4583 27.6778 33.5135 27.3597 33.5135C25.9283 33.5135 23.8055 32.3745 21.5513 30.2965C22.5193 29.2817 23.4874 28.1288 24.4071 26.8517C25.9698 26.686 27.4496 26.4306 28.8049 26.0923C28.964 26.7895 29.0884 27.4592 29.1645 28.1012ZM31.8267 23.4966C31.232 23.752 30.582 23.9798 29.9113 24.1938C29.5172 22.8407 28.9985 21.4324 28.3555 19.9896C28.9916 18.5537 29.5033 17.1523 29.8906 15.8061C30.5751 16.0201 31.2251 16.2548 31.8336 16.5103C34.2815 17.5527 35.865 18.9196 35.865 20.0034C35.8581 21.0873 34.2746 22.4611 31.8267 23.4966Z" fill="#61DAFB"/>
<path d="M20.4313 23.1593C22.1766 23.1593 23.5914 21.7468 23.5914 20.0044C23.5914 18.262 22.1766 16.8495 20.4313 16.8495C18.6861 16.8495 17.2712 18.262 17.2712 20.0044C17.2712 21.7468 18.6861 23.1593 20.4313 23.1593Z" fill="#61DAFB"/>
</svg>
