<svg width="40" height="40" viewBox="0 0 40 40" fill="none" xmlns="http://www.w3.org/2000/svg">
<rect width="40" height="40" fill="white"/>
<path d="M24.7755 23.9629C25.8491 23.8518 26.6636 22.9263 26.6266 21.8156C26.5896 20.705 25.664 19.8165 24.5534 19.8165H24.4793C23.3316 19.8535 22.4431 20.8161 22.4801 21.9637C22.5172 22.5191 22.7393 23.0003 23.0725 23.3335C21.8138 25.814 19.8886 27.628 17.0009 29.1459C15.0388 30.1825 13.0026 30.5528 10.9664 30.2936C9.30042 30.0715 8.00466 29.331 7.19018 28.1093C6.00548 26.2953 5.89442 24.3331 6.89401 22.371C7.59742 20.9641 8.70807 19.9275 9.41148 19.4092C9.2634 18.9279 9.04127 18.1135 8.9302 17.5211C3.56205 21.4084 4.11738 26.6655 5.74633 29.1459C6.96805 30.997 9.4485 32.1447 12.1881 32.1447C12.9285 32.1447 13.669 32.0707 14.4094 31.8855C19.1482 30.96 22.7393 28.1464 24.7755 23.9629Z" fill="#764ABC"/>
<path d="M31.2914 19.3721C28.4778 16.0772 24.3313 14.2631 19.5926 14.2631H19.0002C18.667 13.5967 17.9636 13.1525 17.1861 13.1525H17.1121C15.9644 13.1895 15.0759 14.1521 15.1129 15.2997C15.15 16.4104 16.0755 17.2989 17.1861 17.2989H17.2602C18.0747 17.2619 18.7781 16.7436 19.0743 16.0402H19.7406C22.5543 16.0402 25.2199 16.8546 27.6263 18.4466C29.4774 19.6683 30.8101 21.2602 31.5506 23.1853C32.1799 24.7403 32.1429 26.2582 31.4765 27.5539C30.4399 29.5161 28.6999 30.5897 26.4046 30.5897C24.9237 30.5897 23.5169 30.1454 22.7764 29.8122C22.3692 30.1825 21.6288 30.7748 21.1104 31.145C22.7024 31.8855 24.3313 32.2927 25.8862 32.2927C29.4403 32.2927 32.0689 30.3305 33.0685 28.3684C34.1421 26.2211 34.068 22.519 31.2914 19.3721Z" fill="#764ABC"/>
<path d="M12.4844 24.5921C12.5214 25.7028 13.4469 26.5913 14.5576 26.5913H14.6316C15.7793 26.5543 16.6678 25.5917 16.6308 24.444C16.5938 23.3334 15.6682 22.4449 14.5576 22.4449H14.4835C14.4095 22.4449 14.2984 22.4449 14.2244 22.4819C12.7065 19.9644 12.0771 17.2248 12.2992 14.2631C12.4473 12.0418 13.1878 10.1166 14.4835 8.5247C15.5572 7.15489 17.6304 6.4885 19.0372 6.45148C22.9615 6.37744 24.6275 11.2643 24.7385 13.2265C25.2198 13.3375 26.0343 13.5967 26.5896 13.7818C26.1454 7.78426 22.4432 4.67444 18.8891 4.67444C15.5572 4.67444 12.4844 7.08085 11.2626 10.6349C9.55963 15.3737 10.6703 19.9274 12.7435 23.5185C12.5584 23.7776 12.4473 24.1849 12.4844 24.5921Z" fill="#764ABC"/>
</svg>
