<svg width="31" height="29" viewBox="0 0 31 29" fill="none" xmlns="http://www.w3.org/2000/svg">
<path d="M21.3139 20.003C22.422 19.8884 23.2626 18.9331 23.2244 17.7868C23.1861 16.6405 22.2309 15.7235 21.0846 15.7235H21.0082C19.8237 15.7617 18.9067 16.7552 18.9449 17.9397C18.9831 18.5128 19.2123 19.0095 19.5562 19.3534C18.2571 21.9135 16.2702 23.7858 13.2898 25.3524C11.2647 26.4222 9.16316 26.8043 7.06162 26.5369C5.34218 26.3076 4.00484 25.5434 3.16423 24.2825C1.94151 22.4102 1.82688 20.3851 2.85855 18.36C3.58453 16.908 4.73083 15.8381 5.45681 15.3032C5.30397 14.8065 5.07471 13.9658 4.96008 13.3545C-0.580334 17.3665 -0.00718677 22.7923 1.67404 25.3524C2.93497 27.2629 5.49502 28.4474 8.32255 28.4474C9.08674 28.4474 9.85094 28.3709 10.6151 28.1799C15.506 27.2246 19.2123 24.3207 21.3139 20.003Z" fill="white"/>
<path d="M28.0387 15.2649C25.1347 11.8643 20.8552 9.992 15.9644 9.992H15.353C15.0091 9.30422 14.2831 8.8457 13.4807 8.8457H13.4043C12.2198 8.88391 11.3028 9.87737 11.341 11.0619C11.3792 12.2082 12.3344 13.1252 13.4807 13.1252H13.5572C14.3978 13.087 15.1238 12.5521 15.4294 11.8261H16.1172C19.0212 11.8261 21.7723 12.6667 24.2559 14.3097C26.1664 15.5706 27.5419 17.2136 28.3061 19.2006C28.9557 20.8054 28.9175 22.372 28.2297 23.7093C27.1598 25.7344 25.364 26.8425 22.995 26.8425C21.4666 26.8425 20.0146 26.384 19.2504 26.0401C18.8301 26.4222 18.0659 27.0336 17.531 27.4157C19.174 28.1799 20.8552 28.6002 22.46 28.6002C26.1282 28.6002 28.8411 26.575 29.8727 24.5499C30.9808 22.3338 30.9044 18.5128 28.0387 15.2649Z" fill="white"/>
<path d="M8.62857 20.6526C8.66678 21.7989 9.62202 22.7159 10.7683 22.7159H10.8447C12.0292 22.6777 12.9463 21.6842 12.9081 20.4997C12.8699 19.3534 11.9146 18.4364 10.7683 18.4364H10.6919C10.6155 18.4364 10.5008 18.4364 10.4244 18.4746C8.85783 15.8763 8.20826 13.0488 8.43752 9.99204C8.59036 7.69945 9.35455 5.71254 10.6919 4.06952C11.8 2.65576 13.9397 1.96798 15.3917 1.92977C19.4419 1.85335 21.1614 6.89705 21.276 8.92216C21.7727 9.03679 22.6133 9.30426 23.1865 9.49531C22.728 3.30533 18.907 0.0957031 15.2389 0.0957031C11.8 0.0957031 8.62857 2.57934 7.36765 6.24748C5.61 11.1383 6.75629 15.8381 8.89604 19.5445C8.70499 19.812 8.59036 20.2323 8.62857 20.6526Z" fill="white"/>
</svg>
